<?xml version="1.0" encoding="UTF-8" standalone="no"?>
<!-- Created with Inkscape (http://www.inkscape.org/) -->

<svg
   version="1.1"
   id="svg839"
   width="83.839996"
   height="83.839996"
   viewBox="0 0 83.839996 83.839996"
   sodipodi:docname="final.svg"
   inkscape:version="1.2.1 (9c6d41e, 2022-07-14)"
   xml:space="preserve"
   xmlns:inkscape="http://www.inkscape.org/namespaces/inkscape"
   xmlns:sodipodi="http://sodipodi.sourceforge.net/DTD/sodipodi-0.dtd"
   xmlns="http://www.w3.org/2000/svg"
   xmlns:svg="http://www.w3.org/2000/svg"><defs
     id="defs843" /><sodipodi:namedview
     id="namedview841"
     pagecolor="#ffffff"
     bordercolor="#000000"
     borderopacity="0.25"
     inkscape:showpageshadow="2"
     inkscape:pageopacity="0.0"
     inkscape:pagecheckerboard="0"
     inkscape:deskcolor="#d1d1d1"
     showgrid="false"
     inkscape:zoom="5.7961471"
     inkscape:cx="77.378989"
     inkscape:cy="56.157995"
     inkscape:window-width="1920"
     inkscape:window-height="1016"
     inkscape:window-x="0"
     inkscape:window-y="27"
     inkscape:window-maximized="1"
     inkscape:current-layer="g845" /><g
     inkscape:groupmode="layer"
     inkscape:label="Image"
     id="g845"><path
       style="fill:none;stroke:#000000;stroke-width:3;stroke-dasharray:none"
       d="M -0.00346087,-2.7821951e-4 83.839241,0.00733155 83.831632,83.843525 0.00163277,83.835917 0.00924195,-2.7706657e-4 Z"
       id="path1419" /><text
       xml:space="preserve"
       style="font-size:36px;font-family:RGFuture;-inkscape-font-specification:RGFuture;fill:none;stroke:#000000;stroke-width:0;stroke-dasharray:none"
       x="0.2677393"
       y="20.424473"
       id="text2013"><tspan
         sodipodi:role="line"
         id="tspan2011"
         x="0.2677393"
         y="20.424473"
         style="font-size:36px;fill:#000000;fill-opacity:1">21</tspan></text><path
       style="fill:#000000;stroke-width:0.32"
       d="m 0.06188894,82.403932 c 0,-1.617082 0.23394836,-1.886317 4.39453896,-5.05737 1.1910035,-0.907741 2.2374607,-1.727958 2.3254607,-1.82271 0.088,-0.09475 0.952,-0.701239 1.9199999,-1.347754 2.3109645,-1.543462 4.0589625,-3.12239 3.4567325,-3.12239 -0.258496,0 -1.276088,0.161888 -2.2613156,0.35975 -0.9852274,0.19786 -2.305244,0.263335 -2.9333697,0.145498 C 5.9905421,71.376348 5.8212042,71.216895 5.8172528,70.479209 5.8146928,70.003183 6.1291315,68.641199 6.515983,67.452582 7.1891116,65.384361 7.1961894,65.242886 6.6806189,64.161724 6.3843174,63.540374 6.1418887,62.60488 6.1418887,62.082851 c 0,-0.89129 0.076706,-0.949142 1.2584357,-0.949142 1.6854137,0 1.884679,-0.707133 0.9408547,-3.338816 -0.9709561,-2.707335 -0.6470656,-3.187856 2.0187639,-2.995027 2.066842,0.149504 1.962971,0.378217 1.192674,-2.626157 -0.157938,-0.616 -0.287963,-1.66 -0.288944,-2.32 -0.0016,-1.074288 0.08394,-1.2 0.816513,-1.2 0.450064,0 1.484146,0.167664 2.297962,0.372583 1.451613,0.365523 1.495277,0.353884 2.303192,-0.613869 0.564606,-0.676307 1.167298,-1.019821 1.916924,-1.092583 0.850711,-0.08258 1.223806,-0.340515 1.680943,-1.162121 0.32315,-0.580797 0.864589,-1.353363 1.203196,-1.716816 0.466282,-0.500493 0.547218,-0.840813 0.333594,-1.402688 -0.303895,-0.799306 -1.013031,-2.124566 -1.27593,-2.384505 -0.55199,-0.54578 -1.936812,-2.61464 -2.57036,-3.84 -0.62252,-1.204029 -0.786251,-2.174131 -0.999161,-5.92 -0.14005,-2.464 -0.34734,-5.730286 -0.460643,-7.258414 -0.180835,-2.438928 -0.122756,-2.950386 0.475328,-4.185863 0.783288,-1.618055 3.761923,-4.794477 5.186978,-5.531402 2.14495,-1.109196 6.329585,-1.730201 11.707413,-1.737395 4.137945,-0.0055 6.391212,-0.197134 11.22038,-0.95409 3.323453,-0.52094 6.249472,-1.024737 6.502265,-1.119549 0.631962,-0.237023 11.770496,-1.7727848 12.859619,-1.773062 1.065382,-2.71e-4 1.181789,0.8086013 0.281581,1.956621 -0.32913,0.419735 -2.005715,3.067155 -3.725744,5.883155 -1.720029,2.816 -3.358739,5.49313 -3.641581,5.949178 -0.282841,0.456048 -2.110169,2.50725 -4.060729,4.558228 l -3.546474,3.72905 0.14808,1.785671 c 0.142416,1.717341 0.101684,1.833187 -1.064544,3.02751 -1.024547,1.049232 -1.149001,1.318499 -0.802425,1.736099 0.225613,0.271847 0.896569,0.494263 1.491017,0.494263 0.594452,0 1.081277,0.108 1.081834,0.24 6.4e-4,0.132 0.54056,0.248473 1.2,0.258828 2.203059,0.0346 2.837811,0.427888 6.65582,4.123971 2.26784,2.195415 4.147543,3.752736 4.667411,3.866919 0.833882,0.183152 0.8792,0.126531 1.079978,-1.349274 0.309977,-2.278464 0.395523,-2.463747 1.339091,-2.900445 1.031258,-0.47728 2.524294,-0.510483 4.354982,-0.09685 0.737936,0.166733 1.845703,0.384311 2.461702,0.483504 0.909018,0.146378 1.677597,0.783287 4.08,3.381008 2.958493,3.199024 2.96,3.201514 2.96,4.896838 0,2.276151 -0.892537,8.932605 -1.227792,9.156742 -0.542745,0.362858 -1.01359,2.406711 -0.810182,3.516842 0.115078,0.628051 0.620701,1.614925 1.123603,2.193049 0.502906,0.578122 0.914371,1.410643 0.914371,1.850042 0,0.439398 0.202816,0.876736 0.450701,0.971859 0.247888,0.09512 0.625357,0.594605 0.838822,1.109958 0.213469,0.515351 0.571245,0.937005 0.795063,0.937005 0.454435,0 0.795414,0.69711 0.795414,1.626173 0,0.337603 0.129914,0.613827 0.288694,0.613827 0.332804,0 0.991306,1.732278 0.991306,2.60775 0,0.325738 -0.22183,0.59225 -0.492957,0.59225 -0.271126,0 -0.883699,0.288886 -1.36127,0.641971 -1.097677,0.811549 -6.254128,1.532042 -6.932899,0.968714 -0.728307,-0.604442 -0.884426,0.140051 -0.641331,3.058383 0.221363,2.657415 0.250051,2.731261 1.227558,3.159866 0.855568,0.375136 -4.540006,0.442649 -37.159099,0.464963 l -38.15999806,0.0261 z M 68.387994,68.329382 c 1.370548,-3.258381 2.398237,-6.017994 2.283757,-6.132474 -0.11448,-0.11448 -1.705027,-0.27472 -3.53455,-0.356086 l -3.326403,-0.147939 -0.490394,1.720413 c -1.359808,4.770521 -2.49839,9.634943 -2.347328,10.028607 0.197936,0.515815 1.019527,0.707898 3.285914,0.768227 l 1.637101,0.04358 z M 9.6514728,64.826259 C 10.197568,64.168252 10.457628,61.907731 10.018458,61.63631 9.8223448,61.515104 9.6618885,61.56843 9.6618885,61.754822 c 0,0.186387 -0.5736704,0.338886 -1.2748227,0.338886 h -1.274823 l 0.4514624,1.04 c 0.2483043,0.572 0.529455,1.292 0.6247795,1.6 0.2109411,0.681565 0.9360787,0.727437 1.4629881,0.09255 z M 48.701887,58.7684 c 0,-1.217658 -0.102855,-1.431126 -0.770272,-1.598637 -0.423648,-0.106329 -0.999648,-0.281344 -1.28,-0.388925 -0.418861,-0.160732 -0.509728,0.0562 -0.509728,1.216861 0,1.243235 0.105433,1.454125 0.88,1.760195 1.528048,0.603808 1.68,0.514311 1.68,-0.989494 z m -35.935233,0.06253 c 0.766707,-0.74312 1.055234,-1.306681 1.055234,-2.061113 0,-0.571088 -0.144,-1.127338 -0.32,-1.236112 -0.176,-0.108775 -0.32,-0.02538 -0.32,0.185305 0,0.28 -0.559667,0.325735 -2.08,0.169975 -1.1439995,-0.117207 -2.0799995,-0.115879 -2.0799995,0.0029 0,0.118832 0.3072947,1.058841 0.6828771,2.088912 0.8133854,2.230787 1.4538924,2.408611 3.0618884,0.85008 z m 4.198205,-5.626943 c 0.593422,-0.469396 0.722245,-0.838983 0.64,-1.836128 l -0.102971,-1.248442 -1.6,0.07755 c -0.88,0.04265 -2.083315,-0.06548 -2.674033,-0.240279 -1.014717,-0.300272 -1.063573,-0.278755 -0.88464,0.389597 0.104166,0.389085 0.35269,1.527664 0.552274,2.530179 0.511588,2.569709 1.167962,2.622538 4.06937,0.327527 z m 31.737028,0.111283 c 0,-1.149383 -0.07086,-1.202631 -2.16,-1.623101 -0.993501,-0.199955 -1.04,-0.165254 -1.04,0.776109 0,0.541987 0.036,0.987596 0.08,0.990246 0.044,0.0026 0.656,0.21233 1.36,0.465952 1.754393,0.632045 1.76,0.630102 1.76,-0.609206 z M 23.421888,36.763927 v -2.17822 l 2.133606,-2.261735 c 1.173483,-1.243955 3.238838,-3.040614 4.589678,-3.992577 2.126703,-1.498728 3.547154,-2.72124 3.155896,-2.716127 -0.49872,0.0065 -6.448666,2.417603 -7.530343,3.051508 -2.021135,1.184464 -5.96475,4.397273 -6.614253,5.38854 -0.682034,1.040915 -0.546578,1.563946 0.979664,3.78271 1.748196,2.541428 1.740948,2.536423 2.565752,1.771687 0.610769,-0.566288 0.72,-0.998019 0.72,-2.845786 z m 10.495999,3.185783 c 0.465005,-0.465005 0.509629,-1.536 0.064,-1.536 -0.176,0 -0.32,0.13839 -0.32,0.307532 0,0.169146 -0.315152,0.601146 -0.700339,0.96 -0.675968,0.62976 -0.678195,0.652468 -0.064,0.652468 0.349987,0 0.809139,-0.1728 1.020339,-0.384 z m -1.536,-1.04065 c 0,-0.234784 0.216,-0.509763 0.48,-0.611072 0.692458,-0.265718 0.590528,-0.844278 -0.148742,-0.844278 -0.734406,0 -1.37402,1.01198 -1.096579,1.734979 0.21814,0.568464 0.765321,0.368537 0.765321,-0.279629 z m 6.538454,-2.711542 c 0.574679,-0.635015 0.586877,-1.609239 0.02154,-1.720711 -0.176,-0.0347 -0.366015,0.260903 -0.422255,0.656903 -0.06444,0.45375 -0.323709,0.72 -0.701114,0.72 -0.649258,0 -1.06375,0.426211 -0.734598,0.755366 0.396684,0.396685 1.285171,0.197568 1.836422,-0.411558 z m -0.84807,-2.626832 c -0.744566,-0.460167 -1.68799,0.247667 -1.795869,1.347411 l -0.105484,1.075334 1.127289,-1.10222 c 0.710327,-0.694525 0.99664,-1.182967 0.774064,-1.320525 z"
       id="path2131" /></g></svg>
