<?xml version="1.0" encoding="UTF-8" standalone="no"?>
<!-- Created with Inkscape (http://www.inkscape.org/) -->

<svg
   version="1.1"
   id="svg839"
   width="577.05682"
   height="577.09766"
   viewBox="0 0 577.05682 577.09765"
   sodipodi:docname="resized_final.svg"
   inkscape:version="1.2.1 (9c6d41e, 2022-07-14)"
   xml:space="preserve"
   inkscape:export-filename="resized_final.png"
   inkscape:export-xdpi="96"
   inkscape:export-ydpi="96"
   xmlns:inkscape="http://www.inkscape.org/namespaces/inkscape"
   xmlns:sodipodi="http://sodipodi.sourceforge.net/DTD/sodipodi-0.dtd"
   xmlns="http://www.w3.org/2000/svg"
   xmlns:svg="http://www.w3.org/2000/svg"><defs
     id="defs843" /><sodipodi:namedview
     id="namedview841"
     pagecolor="#ffffff"
     bordercolor="#000000"
     borderopacity="0.25"
     inkscape:showpageshadow="2"
     inkscape:pageopacity="0.0"
     inkscape:pagecheckerboard="0"
     inkscape:deskcolor="#d1d1d1"
     showgrid="false"
     inkscape:zoom="0.72451839"
     inkscape:cx="-195.30215"
     inkscape:cy="118.00943"
     inkscape:window-width="1920"
     inkscape:window-height="1016"
     inkscape:window-x="0"
     inkscape:window-y="27"
     inkscape:window-maximized="1"
     inkscape:current-layer="g845" /><g
     inkscape:groupmode="layer"
     inkscape:label="Image"
     id="g845"
     transform="translate(-0.99670537,-0.99470415)"><path
       style="fill:none;stroke:#000000;stroke-width:15.2488;stroke-dasharray:none"
       d="M 8.5873822,8.6191252 575.41884,8.6705722 575.3674,575.45802 8.6218184,575.40659 8.6732615,8.619133 Z"
       id="path1419" /><text
       xml:space="preserve"
       style="font-size:226.007px;font-family:RGFuture;-inkscape-font-specification:RGFuture;fill:none;stroke:#000000;stroke-width:0;stroke-dasharray:none"
       x="9.0298157"
       y="137.99753"
       id="text2013"><tspan
         sodipodi:role="line"
         id="tspan2011"
         x="9.0298157"
         y="137.99753"
         style="font-size:226.007px;fill:#000000;fill-opacity:1;stroke-width:0">21</tspan></text><path
       style="fill:#000000;stroke-width:2.17215"
       d="m 4.0049129,561.03528 c 0,-10.97665 1.5880287,-12.80421 29.8298881,-34.32914 8.084467,-6.1617 15.187761,-11.72928 15.7851,-12.37246 0.597339,-0.64315 6.462123,-4.75997 13.032854,-9.14848 15.686699,-10.47694 27.552014,-21.19461 23.464109,-21.19461 -1.754656,0 -8.662015,1.09889 -15.349686,2.44197 -6.687669,1.34306 -15.647869,1.7875 -19.911551,0.98763 -6.607342,-1.23953 -7.756799,-2.32189 -7.783621,-7.32927 -0.01738,-3.23123 2.117015,-12.47631 4.742943,-20.54457 4.569159,-14.03897 4.617203,-14.99929 1.117539,-22.33817 -2.011278,-4.21769 -3.656871,-10.56776 -3.656871,-14.11127 0,-6.05003 0.520675,-6.44272 8.542192,-6.44272 11.440496,0 12.793097,-4.79998 6.38647,-22.66371 -6.590797,-18.37724 -4.392246,-21.63899 13.703258,-20.33007 14.02961,1.01482 13.324539,2.56732 8.095805,-17.82621 -1.072074,-4.18137 -1.954676,-11.26799 -1.961335,-15.74803 -0.01086,-7.29221 0.569779,-8.14554 5.542445,-8.14554 3.055009,0 10.074301,1.13809 15.598438,2.52907 9.85347,2.48116 10.14985,2.40215 15.63394,-4.1669 3.83251,-4.59074 7.92355,-6.92249 13.01198,-7.4164 5.77457,-0.56054 8.30712,-2.31139 11.41015,-7.88841 2.19351,-3.94242 5.86878,-9.18656 8.16722,-11.65365 3.1651,-3.39732 3.71448,-5.70739 2.26442,-9.52138 -2.06282,-5.42564 -6.8764,-14.42143 -8.66094,-16.18588 -3.74689,-3.70473 -13.14698,-17.74803 -17.44747,-26.06571 -4.22563,-8.17288 -5.33703,-14.75788 -6.78225,-40.18464 -0.95065,-16.72549 -2.35772,-38.89686 -3.12682,-49.26971 -1.22749,-16.55531 -0.83325,-20.02705 3.2265,-28.41341 5.31692,-10.98327 25.53573,-32.54464 35.20892,-37.54685 14.55981,-7.529162 42.96488,-11.74451 79.46928,-11.793342 28.08814,-0.03734 43.3832,-1.338135 76.16332,-6.476311 22.55941,-3.536112 42.42107,-6.955857 44.13702,-7.599436 4.28972,-1.608899 79.89747,-12.033566 87.29039,-12.035448 7.23175,-0.0019 8.02191,5.488742 1.91135,13.281436 -2.23411,2.849138 -13.61468,20.819679 -25.29015,39.934541 -11.67545,19.11485 -22.79893,37.28706 -24.71885,40.38269 -1.9199,3.09563 -14.3237,17.01907 -27.564,30.94099 l -24.07327,25.31259 1.00516,12.12104 c 0.96671,11.65721 0.69023,12.44357 -7.22606,20.55057 -6.95458,7.12213 -7.79936,8.9499 -5.44682,11.78454 1.53145,1.84529 6.08586,3.35504 10.12093,3.35504 4.03511,0 7.33966,0.7331 7.34344,1.6291 0.004,0.89601 3.66929,1.68663 8.14553,1.75691 14.95424,0.23487 19.26291,2.90448 45.17934,27.99329 15.39398,14.90236 28.1533,25.47337 31.68213,26.24844 5.66034,1.24322 5.96796,0.85888 7.33083,-9.1588 2.10411,-15.46609 2.68479,-16.72378 9.08968,-19.68806 7.00012,-3.23975 17.13477,-3.46513 29.56137,-0.65741 5.00908,1.13177 12.52854,2.60867 16.70991,3.28199 6.17035,0.99361 11.38743,5.31691 27.69481,22.95009 20.08208,21.7148 20.09231,21.73171 20.09231,33.23948 0,15.45038 -6.05849,60.63402 -8.33418,62.15545 -3.68412,2.46307 -6.88019,16.33663 -5.49947,23.87213 0.78114,4.26318 4.21329,10.96203 7.62695,14.8863 3.4137,3.92427 6.2067,9.57537 6.2067,12.55798 0,2.98262 1.37671,5.95124 3.05934,6.59693 1.68265,0.64567 4.24488,4.03614 5.69387,7.53433 1.44902,3.49818 3.87758,6.36034 5.39685,6.36034 3.08468,0 5.39923,4.73195 5.39923,11.03837 0,2.29163 0.88184,4.16662 1.95963,4.16662 2.25906,0 6.72893,11.75861 6.72893,17.70127 0,2.2111 -1.50576,4.02017 -3.34616,4.02017 -1.84039,0 -5.9985,1.96093 -9.24022,4.35765 -7.45098,5.50875 -42.45268,10.39942 -47.06014,6.57558 -4.94371,-4.10292 -6.00343,0.95066 -4.35332,20.76014 1.5026,18.03839 1.69733,18.53965 8.33259,21.449 5.80755,2.5464 -30.8173,3.00467 -252.23391,3.15614 L 4.0049129,570.87626 Z M 467.79875,465.49801 c 9.3032,-22.1177 16.2791,-40.84981 15.50202,-41.62689 -0.77709,-0.77708 -11.57363,-1.86478 -23.99233,-2.41709 l -22.57945,-1.0042 -3.32876,11.67806 c -9.23031,32.38204 -16.95893,65.40147 -15.93354,68.07364 1.34359,3.50132 6.9205,4.80517 22.30461,5.21468 l 11.11255,0.29582 z m -398.700269,-23.779 c 3.706863,-4.46651 5.472136,-19.8108 2.491075,-21.6532 -1.331206,-0.82274 -2.420374,-0.46076 -2.420374,0.80446 0,1.26518 -3.894043,2.30034 -8.653426,2.30034 h -8.653429 l 3.064502,7.05946 c 1.685476,3.8827 3.593911,8.77003 4.240969,10.86071 1.431856,4.62642 6.354051,4.9378 9.930683,0.62823 z M 334.17054,400.5986 c 0,-8.26539 -0.69818,-9.7144 -5.22857,-10.85146 -2.87569,-0.72176 -6.78555,-1.90975 -8.68856,-2.64 -2.84321,-1.09105 -3.46001,0.38147 -3.46001,8.25998 0,8.43901 0.71567,9.87053 5.97339,11.94811 10.37231,4.09862 11.40375,3.49112 11.40375,-6.71663 z m -243.926381,0.42445 c 5.204365,-5.04426 7.162871,-8.86968 7.162871,-13.99073 0,-3.8765 -0.97747,-7.65231 -2.172143,-8.39066 -1.194679,-0.73835 -2.172142,-0.17227 -2.172142,1.25785 0,1.90062 -3.79899,2.21107 -14.118926,1.15377 -7.765406,-0.79559 -14.118922,-0.78657 -14.118922,0.0197 0,0.80663 2.085899,7.18736 4.635332,14.17942 5.521215,15.14246 9.868942,16.34952 20.78393,5.7703 z m 28.497181,-38.19538 c 4.02812,-3.18623 4.90256,-5.69497 4.34428,-12.46354 l -0.69896,-8.47436 -10.86071,0.52642 c -5.97339,0.2895 -14.14142,-0.44448 -18.151184,-1.63101 -6.887843,-2.03823 -7.219475,-1.89217 -6.004887,2.64457 0.707072,2.64108 2.39404,10.36969 3.748805,17.17472 3.472631,17.44304 7.928066,17.80163 27.622656,2.22323 z m 215.4292,0.75539 c 0,-7.80195 -0.481,-8.1634 -14.66196,-11.01753 -6.74383,-1.35728 -7.05947,-1.12173 -7.05947,5.26818 0,3.67899 0.24437,6.70376 0.54304,6.72175 0.29867,0.0176 4.45289,1.44128 9.23161,3.16285 11.90872,4.29029 11.94678,4.2771 11.94678,-4.13525 z M 162.57129,251.23345 v -14.78564 l 14.48281,-15.35253 c 7.96553,-8.4439 21.98505,-20.63952 31.15448,-27.1014 14.43594,-10.17328 24.07788,-18.47162 21.42205,-18.43692 -3.38529,0.0441 -43.77319,16.41056 -51.11555,20.71348 -13.71936,8.04006 -40.4884,29.84844 -44.8972,36.57711 -4.6296,7.06567 -3.71014,10.61597 6.64991,25.67682 11.86666,17.25107 11.81746,17.2171 17.41618,12.02611 4.14588,-3.84393 4.88732,-6.77449 4.88732,-19.31703 z m 71.24627,21.62492 c 3.15643,-3.15643 3.45933,-10.42629 0.43443,-10.42629 -1.19468,0 -2.17215,0.93938 -2.17215,2.08752 0,1.14815 -2.13923,4.08054 -4.75386,6.51642 -4.58843,4.27477 -4.60355,4.42891 -0.43442,4.42891 2.37569,0 5.49238,-1.17295 6.926,-2.60656 z m -10.42628,-7.06388 c 0,-1.5937 1.46619,-3.46025 3.25821,-4.14792 4.70037,-1.80368 4.00847,-5.73091 -1.00965,-5.73091 -4.98511,0 -9.32677,6.86926 -7.44352,11.77693 1.48072,3.85871 5.19496,2.50161 5.19496,-1.8981 z m 44.38266,-18.4058 c 3.9009,-4.31044 3.98369,-10.92343 0.14621,-11.68009 -1.19467,-0.23554 -2.48449,1.77099 -2.86624,4.45902 -0.43741,3.08003 -2.19732,4.88733 -4.75913,4.88733 -4.40712,0 -7.22066,2.89309 -4.9864,5.12738 2.69267,2.69267 8.72366,1.34107 12.46553,-2.79364 z m -5.75665,-17.83079 c -5.05407,-3.12358 -11.45798,1.68115 -12.19026,9.14615 l -0.71602,7.29931 7.65198,-7.48181 c 4.82166,-4.71439 6.76513,-8.02991 5.2543,-8.96365 z"
       id="path2131" /><rect
       style="fill:#000000;fill-opacity:1;stroke-width:15.1181;stroke-linecap:square;stroke-dasharray:none"
       id="rect2449"
       width="9.5610495"
       height="11.561683"
       x="1.0448941"
       y="1.0052558" /></g></svg>
